<svg xmlns="http://www.w3.org/2000/svg" xml:space="preserve" style="enable-background:new 0 0 42 42" viewBox="0 0 42 42"><path d="M1 21C1 10 10 1 21 1s20 9 20 20-9 20-20 20S1 32 1 21z" style="fill:#d9f7be"/><path d="m26.1 15.3 1.4 1.4-8.3 8.4-4-4.1 1.4-1.4 2.6 2.6 6.9-6.9z" style="fill-rule:evenodd;clip-rule:evenodd;fill:#389e0d"/><path d="M21 40C10.5 40 2 31.5 2 21H0c0 11.6 9.4 21 21 21v-2zm19-19c0 10.5-8.5 19-19 19v2c11.6 0 21-9.4 21-21h-2zM21 2c10.5 0 19 8.5 19 19h2C42 9.4 32.6 0 21 0v2zm0-2C9.4 0 0 9.4 0 21h2C2 10.5 10.5 2 21 2V0z" style="fill:#389e0d"/></svg>