<svg width="14" height="14" viewBox="0 0 14 14" fill="none" xmlns="http://www.w3.org/2000/svg">
<path d="M11.8782 9.93826C11.4871 9.54685 11.0301 9.22738 10.5282 8.99451C11.236 8.42107 11.6875 7.54607 11.6875 6.56482C11.6875 4.83357 10.2438 3.41326 8.51254 3.43982C6.80785 3.46638 5.43441 4.85544 5.43441 6.56482C5.43441 7.54607 5.88754 8.42107 6.59379 8.99451C6.09177 9.22721 5.63476 9.5467 5.24379 9.93826C4.39066 10.7929 3.90629 11.9211 3.87504 13.1242C3.87462 13.1409 3.87755 13.1575 3.88364 13.173C3.88974 13.1885 3.89888 13.2027 3.91053 13.2146C3.92218 13.2266 3.9361 13.236 3.95147 13.2425C3.96684 13.249 3.98336 13.2523 4.00004 13.2523H4.87504C4.94223 13.2523 4.99848 13.1992 5.00004 13.132C5.02973 12.2258 5.39691 11.3773 6.04223 10.7336C6.37244 10.4016 6.76523 10.1384 7.19784 9.95925C7.63045 9.78009 8.0943 9.68852 8.56254 9.68982C9.5141 9.68982 10.4094 10.0601 11.0829 10.7336C11.7266 11.3773 12.0938 12.2258 12.125 13.132C12.1266 13.1992 12.1829 13.2523 12.25 13.2523H13.125C13.1417 13.2523 13.1582 13.249 13.1736 13.2425C13.189 13.236 13.2029 13.2266 13.2146 13.2146C13.2262 13.2027 13.2353 13.1885 13.2414 13.173C13.2475 13.1575 13.2505 13.1409 13.25 13.1242C13.2188 11.9211 12.7344 10.7929 11.8782 9.93826ZM8.56254 8.56482C8.02816 8.56482 7.52504 8.35701 7.14848 7.97888C6.9595 7.79139 6.81022 7.56776 6.70955 7.32132C6.60888 7.07488 6.55888 6.81069 6.56254 6.54451C6.56723 6.03201 6.77191 5.5367 7.12973 5.16951C7.50473 4.78513 8.00629 4.57107 8.54223 4.56482C9.07191 4.56013 9.58598 4.76638 9.9641 5.13669C10.3516 5.51638 10.5641 6.02419 10.5641 6.56482C10.5641 7.09919 10.3563 7.60076 9.97816 7.97888C9.79265 8.16528 9.57202 8.31304 9.32903 8.41362C9.08604 8.51419 8.82552 8.56559 8.56254 8.56482ZM4.64848 6.97732C4.63441 6.84138 4.6266 6.70388 4.6266 6.56482C4.6266 6.31638 4.65004 6.07419 4.69379 5.83826C4.70473 5.78201 4.67504 5.7242 4.62348 5.70076C4.41098 5.60545 4.21566 5.47419 4.04691 5.30857C3.84807 5.11577 3.6916 4.88364 3.58748 4.62698C3.48337 4.37033 3.4339 4.09479 3.44223 3.81795C3.45629 3.31638 3.65785 2.83982 4.00941 2.48044C4.39535 2.08513 4.9141 1.86951 5.46566 1.87576C5.9641 1.88044 6.44535 2.07263 6.80941 2.41326C6.93285 2.52888 7.0391 2.65701 7.12816 2.79451C7.15941 2.84294 7.22035 2.86326 7.27348 2.84451C7.54848 2.74919 7.8391 2.68201 8.13754 2.65076C8.22504 2.64138 8.27504 2.54763 8.23598 2.46951C7.72816 1.46482 6.69066 0.77107 5.49066 0.75232C3.75785 0.725757 2.3141 2.14607 2.3141 3.87576C2.3141 4.85701 2.76566 5.73201 3.47348 6.30544C2.9766 6.53513 2.51879 6.85232 2.12191 7.24919C1.26566 8.10388 0.781289 9.23201 0.750039 10.4367C0.749622 10.4534 0.752547 10.47 0.758642 10.4855C0.764737 10.501 0.773878 10.5152 0.785527 10.5271C0.797176 10.5391 0.811098 10.5485 0.826471 10.555C0.841844 10.5615 0.858358 10.5648 0.875039 10.5648H1.7516C1.81879 10.5648 1.87504 10.5117 1.8766 10.4445C1.90629 9.53826 2.27348 8.68982 2.91879 8.04607C3.37816 7.58669 3.94066 7.26794 4.55473 7.11326C4.61566 7.09763 4.65629 7.03982 4.64848 6.97732V6.97732Z" fill="#006590"/>
</svg>
